<svg width="70" height="33" viewBox="0 0 70 33" fill="none" xmlns="http://www.w3.org/2000/svg">
<path d="M2.64334 -0.000488281H-0.000244141V19.0921H2.64334V12.0089C2.64334 10.8107 2.94139 9.86535 3.53749 9.19963C4.1336 8.53392 4.95 8.18775 5.96078 8.18775C6.82901 8.18775 7.5547 8.5073 8.13785 9.11975C8.72099 9.74552 9.01904 10.5311 9.01904 11.4764V19.1054H11.6756V11.4764C11.6756 9.71889 11.1961 8.33421 10.2372 7.2957C9.27822 6.25719 8.02122 5.73794 6.49209 5.73794C6.05149 5.73794 5.61089 5.7912 5.18325 5.91102C4.74266 6.03085 4.39277 6.16399 4.10768 6.31045C3.82259 6.45691 3.55045 6.61668 3.30424 6.80308C3.05802 6.98947 2.88956 7.12262 2.8118 7.2025C2.73405 7.28239 2.66926 7.33564 2.64334 7.37559V-0.000488281Z" fill="#F0145A"/>
<path d="M17.5851 -0.000488281H14.8599V19.0762H17.5851V-0.000488281Z" fill="#323264"/>
<path d="M33.659 13.4891L33.7953 12.1265C33.7953 10.3006 33.1957 8.77445 31.9694 7.54808C30.743 6.32172 29.2169 5.72217 27.391 5.72217C25.5651 5.72217 23.9844 6.37623 22.6763 7.68435C21.3682 8.99247 20.7141 10.5459 20.7141 12.399C20.7141 14.3067 21.3954 15.9418 22.7308 17.3045C24.0662 18.6671 25.6741 19.3484 27.5272 19.3484C28.2358 19.3484 28.8899 19.2394 29.5439 19.0486C30.198 18.8306 30.743 18.6126 31.1246 18.3946C31.5333 18.1493 31.9421 17.8768 32.2964 17.577C32.6507 17.2772 32.896 17.0592 33.005 16.9229C33.114 16.7867 33.1957 16.7049 33.2503 16.6232L31.4788 14.8517L31.0701 15.3695C30.7975 15.6966 30.3342 16.0236 29.6802 16.3779C28.9989 16.7322 28.2903 16.8957 27.5272 16.8957C26.4644 16.8957 25.5651 16.5687 24.802 15.8873C24.0389 15.206 23.5756 14.4157 23.4394 13.4891H33.659ZM27.391 8.03863C28.3993 8.03863 29.2169 8.33841 29.8982 8.91071C30.5523 9.51026 30.961 10.2461 31.1246 11.1727H23.5484C23.7936 10.2461 24.2297 9.51026 24.911 8.91071C25.5651 8.33841 26.4099 8.03863 27.391 8.03863Z" fill="#323264"/>
<path d="M46.3693 18.2856C46.3693 19.4847 46.015 20.4658 45.2792 21.2288C44.5706 21.9646 43.6713 22.3462 42.554 22.3462C42.0634 22.3462 41.5729 22.2644 41.1096 22.1282C40.6463 21.9919 40.292 21.8284 39.9922 21.6376C39.6924 21.4468 39.4199 21.2561 39.1474 21.0108C38.9021 20.7655 38.7386 20.602 38.6569 20.5203C38.5751 20.4385 38.5206 20.3567 38.4661 20.3022L36.6947 22.0736L36.9127 22.3462C37.049 22.5369 37.2942 22.7822 37.6213 23.0547C37.9483 23.3 38.3298 23.5725 38.7659 23.8451C39.2019 24.0903 39.747 24.3083 40.4283 24.4991C41.1096 24.6899 41.8181 24.7989 42.554 24.7989C44.4071 24.7989 45.9333 24.1721 47.2141 22.9185C48.4677 21.6376 49.0945 20.1115 49.0945 18.2583V5.99469H46.3693V7.35732L45.906 6.94853C45.6062 6.676 45.1429 6.40348 44.4889 6.13096C43.8348 5.85843 43.1263 5.72217 42.4177 5.72217C40.7553 5.72217 39.3382 6.34898 38.1118 7.62984C36.8854 8.91071 36.2859 10.4368 36.2859 12.2628C36.2859 14.0887 36.8854 15.6148 38.1118 16.8957C39.3382 18.1765 40.7553 18.8034 42.4177 18.8034C42.881 18.8034 43.317 18.7488 43.7803 18.6398C44.2164 18.5036 44.5706 18.3673 44.8704 18.231C45.1702 18.0948 45.4427 17.9313 45.688 17.7405C45.9333 17.5497 46.124 17.4135 46.1785 17.359L46.3693 17.1682V18.2856ZM39.0111 12.2628C39.0111 11.1182 39.3654 10.1643 40.1012 9.374C40.837 8.58368 41.7091 8.17489 42.6902 8.17489C43.6713 8.17489 44.5434 8.58368 45.2792 9.374C45.9878 10.1643 46.3693 11.1182 46.3693 12.2628C46.3693 13.4074 45.9878 14.3612 45.2792 15.1515C44.5434 15.9418 43.6713 16.3506 42.6902 16.3506C41.7091 16.3506 40.837 15.9418 40.1012 15.1515C39.3654 14.3612 39.0111 13.4074 39.0111 12.2628Z" fill="#323264"/>
<path d="M63.3193 19.0759V10.6276C63.3193 9.23774 62.8015 8.06588 61.7932 7.1393C60.7848 6.18546 59.4767 5.72217 57.8688 5.72217C57.242 5.72217 56.6152 5.80393 56.0156 5.96744C55.4161 6.15821 54.9255 6.34898 54.5713 6.567C54.217 6.78502 53.8627 7.03029 53.5357 7.33006C53.2086 7.60259 53.0179 7.79336 52.9089 7.90237C52.8271 8.01138 52.7453 8.09313 52.6908 8.17489L54.4622 9.9463L54.8165 9.48301C55.0345 9.18323 55.4161 8.91071 55.9884 8.61093C56.5607 8.31115 57.1875 8.17489 57.8688 8.17489C58.6591 8.17489 59.3132 8.42016 59.831 8.88346C60.3488 9.34675 60.594 9.9463 60.594 10.6276L55.8249 11.4452C54.653 11.636 53.6992 12.0992 53.0451 12.8351C52.3638 13.5709 52.0095 14.4702 52.0095 15.5331C52.0095 16.5414 52.4456 17.4135 53.3176 18.1766C54.217 18.9669 55.3071 19.3484 56.6424 19.3484C57.1057 19.3484 57.5418 19.2939 57.9778 19.1576C58.4411 19.0486 58.7954 18.9124 59.0952 18.7761C59.3949 18.6398 59.6675 18.4763 59.9127 18.2856C60.158 18.0948 60.3215 17.9585 60.4305 17.904C60.5123 17.8223 60.5668 17.7405 60.594 17.7133V19.0759H63.3193ZM57.0512 16.8957C56.3427 16.8957 55.7704 16.7322 55.3616 16.4051C54.9255 16.0781 54.7348 15.6966 54.7348 15.2605C54.7348 14.7972 54.871 14.3885 55.1708 14.0887C55.4706 13.7889 55.8794 13.5709 56.3699 13.4891L60.594 12.8078V13.0803C60.594 14.3067 60.2943 15.2333 59.6675 15.9146C59.0407 16.5687 58.1686 16.8957 57.0512 16.8957Z" fill="#323264"/>
<path d="M69.3329 -0.000488281H66.6077V19.0762H69.3329V-0.000488281Z" fill="#323264"/>
<path d="M-0.000244141 28.3293H0.852634V31.3196H2.70054V32.0146H-0.000244141V28.3293Z" fill="#323264"/>
<path d="M8.26728 31.2249H6.55626L6.22985 32.0146H5.35591L6.99849 28.3293H7.84084L9.48868 32.0146H8.59369L8.26728 31.2249ZM7.99878 30.5773L7.4144 29.1664L6.83002 30.5773H7.99878Z" fill="#323264"/>
<path d="M17.8729 28.3293L16.6673 32.0146H15.7512L14.9405 29.5191L14.1034 32.0146H13.1926L11.9817 28.3293H12.8662L13.698 30.9195L14.5667 28.3293H15.3564L16.1987 30.9406L17.0569 28.3293H17.8729Z" fill="#323264"/>
<path d="M26.9455 32.0777C26.5699 32.0777 26.2295 31.997 25.9241 31.8356C25.6223 31.6706 25.3836 31.4442 25.2081 31.1564C25.0361 30.8651 24.9501 30.5369 24.9501 30.1719C24.9501 29.8069 25.0361 29.4805 25.2081 29.1927C25.3836 28.9014 25.6223 28.675 25.9241 28.5136C26.2295 28.3486 26.5717 28.2661 26.9507 28.2661C27.2701 28.2661 27.5579 28.3223 27.8141 28.4346C28.0739 28.5469 28.2915 28.7083 28.467 28.9189L27.9194 29.4243C27.6702 29.1365 27.3614 28.9926 26.9928 28.9926C26.7647 28.9926 26.5611 29.0435 26.3821 29.1453C26.2031 29.2436 26.0627 29.3822 25.961 29.5612C25.8627 29.7402 25.8136 29.9438 25.8136 30.1719C25.8136 30.4001 25.8627 30.6036 25.961 30.7826C26.0627 30.9616 26.2031 31.102 26.3821 31.2038C26.5611 31.3021 26.7647 31.3512 26.9928 31.3512C27.3614 31.3512 27.6702 31.2056 27.9194 30.9142L28.467 31.4197C28.2915 31.6338 28.0739 31.797 27.8141 31.9093C27.5544 32.0216 27.2648 32.0777 26.9455 32.0777Z" fill="#323264"/>
<path d="M33.3828 32.0777C33.0003 32.0777 32.6546 31.9953 32.3457 31.8303C32.0404 31.6653 31.7999 31.439 31.6244 31.1512C31.4525 30.8598 31.3665 30.5334 31.3665 30.1719C31.3665 29.8104 31.4525 29.4858 31.6244 29.198C31.7999 28.9066 32.0404 28.6785 32.3457 28.5136C32.6546 28.3486 33.0003 28.2661 33.3828 28.2661C33.7654 28.2661 34.1094 28.3486 34.4147 28.5136C34.7201 28.6785 34.9605 28.9066 35.136 29.198C35.3115 29.4858 35.3992 29.8104 35.3992 30.1719C35.3992 30.5334 35.3115 30.8598 35.136 31.1512C34.9605 31.439 34.7201 31.6653 34.4147 31.8303C34.1094 31.9953 33.7654 32.0777 33.3828 32.0777ZM33.3828 31.3512C33.6005 31.3512 33.797 31.3021 33.9725 31.2038C34.148 31.102 34.2849 30.9616 34.3831 30.7826C34.4849 30.6036 34.5358 30.4001 34.5358 30.1719C34.5358 29.9438 34.4849 29.7402 34.3831 29.5612C34.2849 29.3822 34.148 29.2436 33.9725 29.1453C33.797 29.0435 33.6005 28.9926 33.3828 28.9926C33.1652 28.9926 32.9687 29.0435 32.7932 29.1453C32.6177 29.2436 32.4791 29.3822 32.3773 29.5612C32.279 29.7402 32.2299 29.9438 32.2299 30.1719C32.2299 30.4001 32.279 30.6036 32.3773 30.7826C32.4791 30.9616 32.6177 31.102 32.7932 31.2038C32.9687 31.3021 33.1652 31.3512 33.3828 31.3512Z" fill="#323264"/>
<path d="M42.0261 32.0146L42.0209 29.8034L40.9363 31.625H40.552L39.4728 29.8508V32.0146H38.6725V28.3293H39.378L40.7573 30.6194L42.1156 28.3293H42.8158L42.8264 32.0146H42.0261Z" fill="#323264"/>
<path d="M47.9283 28.3293C48.2547 28.3293 48.5372 28.3837 48.7759 28.4925C49.018 28.6013 49.2041 28.7557 49.3339 28.9558C49.4638 29.1558 49.5287 29.3928 49.5287 29.6665C49.5287 29.9368 49.4638 30.1737 49.3339 30.3773C49.2041 30.5773 49.018 30.7317 48.7759 30.8405C48.5372 30.9458 48.2547 30.9985 47.9283 30.9985H47.1859V32.0146H46.3331V28.3293H47.9283ZM47.8809 30.3035C48.1371 30.3035 48.3319 30.2491 48.4652 30.1403C48.5986 30.028 48.6653 29.8701 48.6653 29.6665C48.6653 29.4594 48.5986 29.3015 48.4652 29.1927C48.3319 29.0804 48.1371 29.0242 47.8809 29.0242H47.1859V30.3035H47.8809Z" fill="#323264"/>
<path d="M55.0119 31.2249H53.3009L52.9744 32.0146H52.1005L53.7431 28.3293H54.5854L56.2333 32.0146H55.3383L55.0119 31.2249ZM54.7434 30.5773L54.159 29.1664L53.5746 30.5773H54.7434Z" fill="#323264"/>
<path d="M62.6279 28.3293V32.0146H61.9277L60.0903 29.7771V32.0146H59.248V28.3293H59.9534L61.7856 30.5668V28.3293H62.6279Z" fill="#323264"/>
<path d="M67.9011 30.7089V32.0146H67.0482V30.6984L65.6215 28.3293H66.527L67.5115 29.9666L68.496 28.3293H69.3331L67.9011 30.7089Z" fill="#323264"/>
</svg>
